<svg id="visual" viewBox="0 0 960 540" width="960" height="540" xmlns="http://www.w3.org/2000/svg" xmlns:xlink="http://www.w3.org/1999/xlink" version="1.1"><rect x="0" y="0" width="960" height="540" fill="#000910"></rect><defs><linearGradient id="grad1_0" x1="43.8%" y1="0%" x2="100%" y2="100%"><stop offset="14.444444444444446%" stop-color="#000910" stop-opacity="1"></stop><stop offset="85.55555555555554%" stop-color="#000910" stop-opacity="1"></stop></linearGradient></defs><defs><linearGradient id="grad2_0" x1="0%" y1="0%" x2="56.3%" y2="100%"><stop offset="14.444444444444446%" stop-color="#000910" stop-opacity="1"></stop><stop offset="85.55555555555554%" stop-color="#000910" stop-opacity="1"></stop></linearGradient></defs><g transform="translate(960, 0)"><path d="M0 270C-32.2 260.1 -64.4 250.2 -99.1 239.3C-133.8 228.3 -171.1 216.3 -190.9 190.9C-210.8 165.5 -213.3 126.7 -223.6 92.6C-233.9 58.6 -251.9 29.3 -270 0L0 0Z" fill="#FBAE3C"></path></g><g transform="translate(0, 540)"><path d="M0 -270C37.7 -267.7 75.4 -265.4 102.6 -247.6C129.7 -229.8 146.4 -196.6 171.8 -171.8C197.3 -147 231.6 -130.6 249.4 -103.3C267.3 -76.1 268.6 -38 270 0L0 0Z" fill="#FBAE3C"></path></g></svg>