<svg id="visual" viewBox="0 0 960 540" width="960" height="540" xmlns="http://www.w3.org/2000/svg" xmlns:xlink="http://www.w3.org/1999/xlink" version="1.1"><rect x="0" y="0" width="960" height="540" fill="#000910"></rect><defs><linearGradient id="grad1_0" x1="43.8%" y1="100%" x2="100%" y2="0%"><stop offset="14.444444444444446%" stop-color="#000910" stop-opacity="1"></stop><stop offset="85.55555555555554%" stop-color="#000910" stop-opacity="1"></stop></linearGradient></defs><defs><linearGradient id="grad2_0" x1="0%" y1="100%" x2="56.3%" y2="0%"><stop offset="14.444444444444446%" stop-color="#000910" stop-opacity="1"></stop><stop offset="85.55555555555554%" stop-color="#000910" stop-opacity="1"></stop></linearGradient></defs><g transform="translate(960, 540)"><path d="M-189 0C-172.3 -19 -155.6 -38 -148.7 -61.6C-141.9 -85.2 -145 -113.5 -133.6 -133.6C-122.3 -153.8 -96.6 -165.8 -71.9 -173.7C-47.3 -181.6 -23.6 -185.3 0 -189L0 0Z" fill="#FBAE3C"></path></g><g transform="translate(0, 0)"><path d="M189 0C167.5 17.1 145.9 34.2 139.5 57.8C133.1 81.4 141.9 111.6 132.9 132.9C124 154.3 97.4 166.7 72.3 174.6C47.2 182.5 23.6 185.7 0 189L0 0Z" fill="#FBAE3C"></path></g></svg>