<svg id="visual" viewBox="0 0 960 540" width="960" height="540" xmlns="http://www.w3.org/2000/svg" xmlns:xlink="http://www.w3.org/1999/xlink" version="1.1"><rect x="0" y="0" width="960" height="540" fill="#131313"></rect><defs><linearGradient id="grad1_0" x1="43.8%" y1="100%" x2="100%" y2="0%"><stop offset="14.444444444444446%" stop-color="#999999" stop-opacity="1"></stop><stop offset="85.55555555555554%" stop-color="#999999" stop-opacity="1"></stop></linearGradient></defs><defs><linearGradient id="grad1_1" x1="43.8%" y1="100%" x2="100%" y2="0%"><stop offset="14.444444444444446%" stop-color="#999999" stop-opacity="1"></stop><stop offset="85.55555555555554%" stop-color="#848484" stop-opacity="1"></stop></linearGradient></defs><defs><linearGradient id="grad1_2" x1="43.8%" y1="100%" x2="100%" y2="0%"><stop offset="14.444444444444446%" stop-color="#6f6f6f" stop-opacity="1"></stop><stop offset="85.55555555555554%" stop-color="#848484" stop-opacity="1"></stop></linearGradient></defs><defs><linearGradient id="grad1_3" x1="43.8%" y1="100%" x2="100%" y2="0%"><stop offset="14.444444444444446%" stop-color="#6f6f6f" stop-opacity="1"></stop><stop offset="85.55555555555554%" stop-color="#5b5b5b" stop-opacity="1"></stop></linearGradient></defs><defs><linearGradient id="grad1_4" x1="43.8%" y1="100%" x2="100%" y2="0%"><stop offset="14.444444444444446%" stop-color="#484848" stop-opacity="1"></stop><stop offset="85.55555555555554%" stop-color="#5b5b5b" stop-opacity="1"></stop></linearGradient></defs><defs><linearGradient id="grad1_5" x1="43.8%" y1="100%" x2="100%" y2="0%"><stop offset="14.444444444444446%" stop-color="#484848" stop-opacity="1"></stop><stop offset="85.55555555555554%" stop-color="#353535" stop-opacity="1"></stop></linearGradient></defs><defs><linearGradient id="grad1_6" x1="43.8%" y1="100%" x2="100%" y2="0%"><stop offset="14.444444444444446%" stop-color="#242424" stop-opacity="1"></stop><stop offset="85.55555555555554%" stop-color="#353535" stop-opacity="1"></stop></linearGradient></defs><defs><linearGradient id="grad1_7" x1="43.8%" y1="100%" x2="100%" y2="0%"><stop offset="14.444444444444446%" stop-color="#242424" stop-opacity="1"></stop><stop offset="85.55555555555554%" stop-color="#131313" stop-opacity="1"></stop></linearGradient></defs><defs><linearGradient id="grad2_0" x1="0%" y1="100%" x2="56.3%" y2="0%"><stop offset="14.444444444444446%" stop-color="#999999" stop-opacity="1"></stop><stop offset="85.55555555555554%" stop-color="#999999" stop-opacity="1"></stop></linearGradient></defs><defs><linearGradient id="grad2_1" x1="0%" y1="100%" x2="56.3%" y2="0%"><stop offset="14.444444444444446%" stop-color="#848484" stop-opacity="1"></stop><stop offset="85.55555555555554%" stop-color="#999999" stop-opacity="1"></stop></linearGradient></defs><defs><linearGradient id="grad2_2" x1="0%" y1="100%" x2="56.3%" y2="0%"><stop offset="14.444444444444446%" stop-color="#848484" stop-opacity="1"></stop><stop offset="85.55555555555554%" stop-color="#6f6f6f" stop-opacity="1"></stop></linearGradient></defs><defs><linearGradient id="grad2_3" x1="0%" y1="100%" x2="56.3%" y2="0%"><stop offset="14.444444444444446%" stop-color="#5b5b5b" stop-opacity="1"></stop><stop offset="85.55555555555554%" stop-color="#6f6f6f" stop-opacity="1"></stop></linearGradient></defs><defs><linearGradient id="grad2_4" x1="0%" y1="100%" x2="56.3%" y2="0%"><stop offset="14.444444444444446%" stop-color="#5b5b5b" stop-opacity="1"></stop><stop offset="85.55555555555554%" stop-color="#484848" stop-opacity="1"></stop></linearGradient></defs><defs><linearGradient id="grad2_5" x1="0%" y1="100%" x2="56.3%" y2="0%"><stop offset="14.444444444444446%" stop-color="#353535" stop-opacity="1"></stop><stop offset="85.55555555555554%" stop-color="#484848" stop-opacity="1"></stop></linearGradient></defs><defs><linearGradient id="grad2_6" x1="0%" y1="100%" x2="56.3%" y2="0%"><stop offset="14.444444444444446%" stop-color="#353535" stop-opacity="1"></stop><stop offset="85.55555555555554%" stop-color="#242424" stop-opacity="1"></stop></linearGradient></defs><defs><linearGradient id="grad2_7" x1="0%" y1="100%" x2="56.3%" y2="0%"><stop offset="14.444444444444446%" stop-color="#131313" stop-opacity="1"></stop><stop offset="85.55555555555554%" stop-color="#242424" stop-opacity="1"></stop></linearGradient></defs><g transform="translate(960, 540)"><path d="M-162 0C-154.9 -26.5 -147.7 -53 -135.1 -78C-122.5 -103 -104.4 -126.5 -81 -140.3C-57.6 -154 -28.8 -158 0 -162L0 0Z" fill="#1b1b1b"></path><path d="M-141.7 0C-135.5 -23.2 -129.2 -46.4 -118.2 -68.3C-107.2 -90.1 -91.4 -110.7 -70.9 -122.8C-50.4 -134.8 -25.2 -138.3 0 -141.7L0 0Z" fill="#2c2c2c"></path><path d="M-121.5 0C-116.1 -19.9 -110.8 -39.7 -101.3 -58.5C-91.9 -77.3 -78.3 -94.9 -60.8 -105.2C-43.2 -115.5 -21.6 -118.5 0 -121.5L0 0Z" fill="#3e3e3e"></path><path d="M-101.2 0C-96.8 -16.6 -92.3 -33.1 -84.4 -48.8C-76.6 -64.4 -65.3 -79.1 -50.6 -87.7C-36 -96.3 -18 -98.8 0 -101.2L0 0Z" fill="#515151"></path><path d="M-81 0C-77.4 -13.2 -73.9 -26.5 -67.5 -39C-61.2 -51.5 -52.2 -63.3 -40.5 -70.1C-28.8 -77 -14.4 -79 0 -81L0 0Z" fill="#656565"></path><path d="M-60.7 0C-58.1 -9.9 -55.4 -19.9 -50.7 -29.3C-45.9 -38.6 -39.2 -47.5 -30.4 -52.6C-21.6 -57.8 -10.8 -59.3 0 -60.7L0 0Z" fill="#797979"></path><path d="M-40.5 0C-38.7 -6.6 -36.9 -13.2 -33.8 -19.5C-30.6 -25.8 -26.1 -31.6 -20.3 -35.1C-14.4 -38.5 -7.2 -39.5 0 -40.5L0 0Z" fill="#8e8e8e"></path><path d="M-20.2 0C-19.4 -3.3 -18.5 -6.6 -16.9 -9.8C-15.3 -12.9 -13.1 -15.8 -10.1 -17.5C-7.2 -19.3 -3.6 -19.8 0 -20.2L0 0Z" fill="#999999"></path></g><g transform="translate(0, 0)"><path d="M162 0C157.8 28.4 153.6 56.9 140.3 81C126.9 105.1 104.4 124.9 79.5 137.7C54.6 150.5 27.3 156.2 0 162L0 0Z" fill="#1b1b1b"></path><path d="M141.8 0C138.1 24.9 134.4 49.8 122.8 70.9C111.1 92 91.4 109.3 69.6 120.5C47.8 131.7 23.9 136.7 0 141.8L0 0Z" fill="#2c2c2c"></path><path d="M121.5 0C118.4 21.3 115.2 42.7 105.2 60.7C95.2 78.8 78.3 93.7 59.6 103.3C40.9 112.9 20.5 117.2 0 121.5L0 0Z" fill="#3e3e3e"></path><path d="M101.3 0C98.6 17.8 96 35.6 87.7 50.6C79.3 65.7 65.3 78.1 49.7 86.1C34.1 94 17.1 97.6 0 101.3L0 0Z" fill="#515151"></path><path d="M81 0C78.9 14.2 76.8 28.4 70.1 40.5C63.5 52.6 52.2 62.5 39.8 68.8C27.3 75.2 13.6 78.1 0 81L0 0Z" fill="#656565"></path><path d="M60.8 0C59.2 10.7 57.6 21.3 52.6 30.4C47.6 39.4 39.2 46.8 29.8 51.6C20.5 56.4 10.2 58.6 0 60.8L0 0Z" fill="#797979"></path><path d="M40.5 0C39.5 7.1 38.4 14.2 35.1 20.2C31.7 26.3 26.1 31.2 19.9 34.4C13.6 37.6 6.8 39.1 0 40.5L0 0Z" fill="#8e8e8e"></path><path d="M20.3 0C19.7 3.6 19.2 7.1 17.5 10.1C15.9 13.1 13.1 15.6 9.9 17.2C6.8 18.8 3.4 19.5 0 20.3L0 0Z" fill="#999999"></path></g></svg>